<?xml version="1.0" standalone="no"?>
<!DOCTYPE svg PUBLIC "-//W3C//DTD SVG 20010904//EN"
 "http://www.w3.org/TR/2001/REC-SVG-20010904/DTD/svg10.dtd">
<svg version="1.0" xmlns="http://www.w3.org/2000/svg"
 width="709.000000pt" height="709.000000pt" viewBox="0 0 709.000000 709.000000"
 preserveAspectRatio="xMidYMid meet">
<metadata>
Created by potrace 1.11, written by Peter Selinger 2001-2013
</metadata>
<g transform="translate(0.000000,709.000000) scale(0.100000,-0.100000)"
fill="#000000" stroke="none">
<path d="M6719 5596 c-2 -2 -36 -5 -74 -7 -39 -1 -80 -6 -91 -10 -12 -4 -39
-10 -61 -14 -21 -3 -50 -8 -63 -11 -14 -3 -42 -5 -62 -5 -44 0 -56 -13 -34
-38 9 -10 16 -24 15 -32 0 -8 -4 -4 -9 9 -5 12 -16 22 -23 22 -11 0 -13 -15
-11 -67 2 -38 6 -133 9 -213 3 -80 7 -188 10 -240 5 -82 14 -861 13 -1005 -2
-146 -7 -312 -10 -330 -4 -26 47 -51 127 -61 72 -9 90 -9 225 0 135 9 198 23
211 47 5 11 9 58 8 105 -1 64 2 88 12 95 12 7 11 11 -2 24 -16 17 -77 21 -128
11 -13 -3 -32 -1 -42 4 -16 9 -58 17 -99 19 -52 3 -61 46 -66 337 -3 186 -1
244 8 251 7 6 42 13 78 17 36 3 89 11 117 17 49 11 53 15 59 46 4 19 4 37 1
40 -4 3 -2 15 4 25 15 29 -7 104 -38 128 -22 17 -36 18 -119 14 l-94 -6 -1 48
c-1 27 -2 63 -4 79 -2 17 -6 109 -10 206 l-6 176 53 2 c29 1 62 4 73 8 11 3
50 6 87 6 67 -1 139 14 157 32 6 6 13 58 17 116 l7 106 -74 16 c-41 9 -92 17
-114 19 -22 1 -43 6 -46 10 -3 5 -7 6 -10 4z m191 -76 c8 -5 11 -12 7 -16 -4
-4 -15 0 -24 9 -18 18 -8 23 17 7z m-550 -106 c-15 -17 -30 -18 -30 -1 0 7 9
13 21 14 17 2 18 -1 9 -13z m17 -66 c-3 -8 -6 -5 -6 6 -1 11 2 17 5 13 3 -3 4
-12 1 -19z m-30 -110 c-3 -7 -5 -2 -5 12 0 14 2 19 5 13 2 -7 2 -19 0 -25z
m10 -33 c0 -8 -4 -12 -9 -9 -5 3 -6 10 -3 15 9 13 12 11 12 -6z m183 -22 c0
-21 -3 -24 -9 -14 -5 8 -7 20 -4 28 8 21 13 15 13 -14z m-181 -65 c1 -34 0
-60 -3 -58 -7 9 -14 120 -6 120 4 0 8 -28 9 -62z m98 25 c-3 -10 -5 -4 -5 12
0 17 2 24 5 18 2 -7 2 -21 0 -30z m77 -8 c3 -8 1 -15 -4 -15 -6 0 -10 7 -10
15 0 8 2 15 4 15 2 0 6 -7 10 -15z m-82 -161 c-2 -78 -12 -100 -13 -28 0 27
-2 64 -4 83 -3 24 -1 31 7 23 6 -6 10 -41 10 -78z m-15 -196 c-3 -8 -6 -5 -6
6 -1 11 2 17 5 13 3 -3 4 -12 1 -19z m298 -26 c6 -4 11 -17 13 -28 4 -28 -24
-40 -31 -13 -3 10 0 19 5 19 6 0 5 6 -2 15 -13 15 -3 20 15 7z m-168 -98 c-3
-3 -12 -4 -19 -1 -8 3 -5 6 6 6 11 1 17 -2 13 -5z m77 -6 c-2 -3 -13 -6 -24
-5 -24 2 -18 13 9 13 11 0 18 -4 15 -8z m16 -89 c0 -5 -4 -9 -8 -9 -5 0 -9 7
-9 15 0 8 4 12 9 9 4 -3 8 -9 8 -15z m-177 -189 c3 -11 1 -20 -4 -20 -5 0 -9
9 -9 20 0 11 2 20 4 20 2 0 6 -9 9 -20z m-111 -75 c3 -14 1 -25 -3 -25 -5 0
-9 11 -9 25 0 14 2 25 4 25 2 0 6 -11 8 -25z m-5 -452 c-2 -16 -4 -5 -4 22 0
28 2 40 4 28 2 -13 2 -35 0 -50z m83 27 c0 -5 -5 -10 -11 -10 -5 0 -7 5 -4 10
3 6 8 10 11 10 2 0 4 -4 4 -10z m410 -40 c0 -5 -7 -7 -15 -4 -8 4 -15 8 -15
10 0 2 7 4 15 4 8 0 15 -4 15 -10z m-314 -93 c4 -3 -4 -4 -16 -2 -30 6 -40 16
-12 12 12 -2 24 -6 28 -10z m128 5 c3 -5 -1 -9 -9 -9 -8 0 -12 4 -9 9 3 4 7 8
9 8 2 0 6 -4 9 -8z m-61 -9 c-7 -2 -19 -2 -25 0 -7 3 -2 5 12 5 14 0 19 -2 13
-5z m-246 -65 c-3 -7 -5 -2 -5 12 0 14 2 19 5 13 2 -7 2 -19 0 -25z m78 -26
c-3 -3 -11 0 -18 7 -9 10 -8 11 6 5 10 -3 15 -9 12 -12z"/>
<path d="M5115 5564 c-22 -7 -65 -13 -95 -13 -52 -1 -56 -3 -58 -26 -1 -14 2
-25 7 -25 7 0 7 -228 0 -455 0 -22 -1 -65 0 -95 1 -30 1 -62 1 -70 0 -8 1
-127 3 -264 1 -143 -3 -282 -9 -325 -6 -42 -7 -83 -3 -91 4 -8 7 -110 7 -226
0 -267 6 -333 35 -343 33 -12 138 -2 176 17 40 20 40 19 46 182 2 69 8 154 12
190 4 36 5 103 1 150 -4 47 -10 141 -13 210 -3 69 -8 170 -11 225 -3 55 -6
105 -6 110 0 40 13 294 16 311 5 23 17 213 20 318 1 37 -1 69 -5 72 -5 2 -6
11 -2 19 3 9 0 22 -6 29 -7 8 -14 27 -17 43 -3 15 -13 33 -22 40 -9 7 -21 16
-27 21 -5 4 -28 2 -50 -4z m21 -54 c0 -12 -7 -15 -23 -12 -14 3 -23 -1 -23 -9
0 -7 -3 -9 -7 -6 -8 9 23 44 40 44 7 0 13 -8 13 -17z m-79 -42 c-3 -8 -6 -5
-6 6 -1 11 2 17 5 13 3 -3 4 -12 1 -19z m57 -13 c3 -8 1 -15 -4 -15 -6 0 -10
7 -10 15 0 8 2 15 4 15 2 0 6 -7 10 -15z m-29 -65 c3 -5 1 -10 -4 -10 -6 0
-11 5 -11 10 0 6 2 10 4 10 3 0 8 -4 11 -10z m52 -52 c-3 -8 -6 -5 -6 6 -1 11
2 17 5 13 3 -3 4 -12 1 -19z m46 -85 c3 -5 1 -17 -3 -28 -6 -17 -7 -16 -12 8
-5 25 5 37 15 20z m-92 -255 c-8 -38 -9 -35 -9 37 0 66 1 74 9 43 4 -20 4 -55
0 -80z m-10 -155 c-9 -15 -10 -14 -7 7 6 35 7 37 12 23 3 -7 1 -20 -5 -30z
m46 -305 c-3 -8 -6 -5 -6 6 -1 11 2 17 5 13 3 -3 4 -12 1 -19z m0 -80 c-3 -7
-5 -2 -5 12 0 14 2 19 5 13 2 -7 2 -19 0 -25z m-97 -28 c0 -5 -2 -10 -4 -10
-3 0 -8 5 -11 10 -3 6 -1 10 4 10 6 0 11 -4 11 -10z m100 -16 c0 -8 -5 -12
-10 -9 -6 4 -8 11 -5 16 9 14 15 11 15 -7z m-117 -105 c-5 -5 -7 7 -4 29 5 34
6 35 9 8 2 -16 0 -32 -5 -37z m184 -121 c-3 -7 -5 -2 -5 12 0 14 2 19 5 13 2
-7 2 -19 0 -25z m-193 -24 c3 -8 2 -12 -4 -9 -6 3 -10 10 -10 16 0 14 7 11 14
-7z m206 -62 c0 -7 -4 -10 -10 -7 -5 3 -10 16 -10 28 0 18 2 19 10 7 5 -8 10
-21 10 -28z m-5 -57 c2 -14 -2 -28 -7 -32 -7 -3 -8 -1 -4 5 4 7 3 12 -3 12 -5
0 -8 8 -6 18 2 9 4 21 4 26 2 18 14 -4 16 -29z m-75 -10 c0 -8 -4 -15 -10 -15
-5 0 -7 7 -4 15 4 8 8 15 10 15 2 0 4 -7 4 -15z m-118 -92 c2 -24 0 -43 -4
-43 -5 0 -7 26 -7 58 1 61 6 55 11 -15z m183 39 c-3 -3 -11 0 -18 7 -9 10 -8
11 6 5 10 -3 15 -9 12 -12z m-9 -247 c1 -8 -2 -15 -7 -15 -5 0 -9 10 -9 22 0
23 12 17 16 -7z"/>
<path d="M4395 5553 c-76 -7 -143 -17 -149 -23 -5 -5 -8 -47 -7 -92 5 -167 -5
-448 -20 -534 -14 -87 -19 -412 -6 -479 5 -27 8 -117 7 -200 -5 -283 -4 -390
3 -465 16 -166 20 -175 72 -164 16 4 58 8 93 9 71 3 91 15 90 54 -1 16 3 34 7
41 8 12 11 150 18 657 2 113 4 132 17 128 35 -11 162 -13 197 -3 64 17 72 30
68 111 -1 40 -6 84 -10 100 -7 26 -10 27 -74 28 -36 0 -73 2 -81 3 -8 2 -41 6
-72 10 l-58 7 -1 112 c0 62 -3 153 -6 202 -6 86 -7 154 -4 221 1 28 4 31 34
28 35 -2 285 -7 304 -5 22 2 31 88 19 173 -7 56 -9 58 -44 67 -95 26 -218 30
-397 14z m-105 -52 c0 -6 -4 -13 -10 -16 -5 -3 -10 1 -10 9 0 9 5 16 10 16 6
0 10 -4 10 -9z m104 -287 c3 -8 2 -12 -4 -9 -6 3 -10 10 -10 16 0 14 7 11 14
-7z m37 -111 c-10 -17 -10 -16 -11 3 0 23 13 41 18 25 2 -6 -1 -18 -7 -28z
m-81 -18 c0 -14 -4 -25 -9 -25 -4 0 -6 11 -3 25 2 14 6 25 8 25 2 0 4 -11 4
-25z m67 -37 c-3 -8 -6 -5 -6 6 -1 11 2 17 5 13 3 -3 4 -12 1 -19z m43 -74 c0
-14 -4 -23 -10 -19 -5 3 -10 15 -10 26 0 10 5 19 10 19 6 0 10 -12 10 -26z
m-120 -105 l-6 -44 -5 63 c-5 71 2 102 11 56 4 -17 4 -51 0 -75z m-93 -71 c-3
-8 -6 -5 -6 6 -1 11 2 17 5 13 3 -3 4 -12 1 -19z m3 -28 c0 -5 -5 -10 -11 -10
-5 0 -7 5 -4 10 3 6 8 10 11 10 2 0 4 -4 4 -10z m83 -55 c4 -8 2 -17 -3 -20
-6 -4 -10 3 -10 14 0 25 6 27 13 6z m402 -25 c3 -6 -1 -7 -9 -4 -18 7 -21 14
-7 14 6 0 13 -4 16 -10z m-141 -132 c-2 -4 -14 -5 -26 -3 -32 7 -32 13 1 11
16 0 27 -4 25 -8z m-347 -80 c-3 -8 -6 -5 -6 6 -1 11 2 17 5 13 3 -3 4 -12 1
-19z m233 2 c0 -5 -5 -10 -11 -10 -5 0 -7 5 -4 10 3 6 8 10 11 10 2 0 4 -4 4
-10z m-13 -32 c12 -20 12 -247 -1 -245 -17 3 -24 40 -12 56 8 11 8 13 0 8 -7
-4 -14 2 -17 14 -4 16 -2 19 10 15 11 -4 13 -2 10 9 -4 8 -2 17 4 20 5 4 6 11
3 17 -4 6 -10 5 -15 -3 -7 -11 -9 -10 -9 4 0 9 8 17 18 17 16 1 16 1 -1 14
-16 12 -16 14 -1 20 14 5 14 9 3 23 -10 12 -10 14 -1 9 18 -11 14 5 -5 20 -10
7 -13 14 -6 14 6 0 15 -6 20 -12z m-90 -120 c-3 -7 -5 -2 -5 12 0 14 2 19 5
13 2 -7 2 -19 0 -25z m-96 3 c-9 -6 -11 -16 -7 -27 6 -15 4 -16 -5 -7 -14 14
-5 43 13 43 10 0 9 -3 -1 -9z m-12 -118 c0 -5 -4 -17 -9 -28 -8 -18 -9 -17 -9
8 -1 15 4 27 9 27 6 0 10 -3 9 -7z m197 -269 c-4 -16 -11 -21 -22 -17 -17 6
-13 29 5 26 7 -2 12 15 13 45 1 45 2 46 5 8 3 -22 2 -49 -1 -62z m-219 4 c-3
-8 -6 -5 -6 6 -1 11 2 17 5 13 3 -3 4 -12 1 -19z m220 -64 c0 -9 -6 -13 -14
-9 -8 3 -17 5 -19 5 -2 0 -4 6 -4 14 0 9 7 12 18 9 10 -2 19 -11 19 -19z m-7
-30 c0 -2 -7 -4 -15 -4 -8 0 -15 4 -15 10 0 5 7 7 15 4 8 -4 15 -8 15 -10z
m-197 -72 c2 -32 1 -48 -4 -40 -5 7 -8 36 -8 63 1 60 6 50 12 -23z"/>
<path d="M2593 5552 c-14 -2 -24 -12 -28 -30 -8 -41 -18 -225 -16 -327 1 -113
1 -158 -2 -432 -2 -196 -4 -218 -15 -185 -7 20 -15 55 -18 77 -3 22 -8 51 -11
65 -3 14 -8 34 -9 45 -9 53 -37 173 -45 193 -5 13 -12 40 -15 60 -3 21 -17 73
-32 117 -14 44 -26 82 -27 85 0 3 -6 24 -13 48 -31 108 -35 123 -35 137 0 8
-4 15 -8 15 -4 0 -7 10 -7 23 1 61 -9 91 -33 97 -27 7 -25 7 -141 -4 -53 -5
-88 -13 -89 -20 -1 -10 1 -192 3 -376 1 -47 -2 -125 -5 -175 -19 -234 -21
-323 -19 -795 1 -278 3 -514 5 -525 4 -21 7 -21 92 -11 72 9 96 15 110 30 13
12 28 257 25 394 -1 67 -1 71 4 207 1 50 5 184 7 298 2 115 7 211 10 213 4 2
13 -29 19 -68 7 -40 14 -80 15 -88 2 -8 10 -53 19 -100 15 -81 19 -107 31
-175 3 -16 10 -52 15 -80 5 -27 12 -63 15 -80 2 -16 15 -61 29 -100 13 -38 41
-131 61 -205 51 -181 84 -256 116 -257 13 0 50 -3 81 -7 57 -7 57 -7 75 26 17
32 25 151 23 353 0 33 0 96 -1 140 0 44 0 91 0 105 -2 165 1 261 11 340 6 52
12 103 11 113 0 9 -1 23 -1 30 -1 6 1 95 4 197 2 102 0 219 -5 260 -8 69 -20
193 -22 230 0 8 3 38 7 65 7 48 6 52 -18 64 -23 13 -124 20 -173 13z m-378
-42 c4 -6 -7 -10 -27 -9 -27 0 -30 2 -13 9 27 12 33 12 40 0z m542 -157 c-3
-10 -5 -4 -5 12 0 17 2 24 5 18 2 -7 2 -21 0 -30z m-67 23 c0 -3 -4 -8 -10
-11 -5 -3 -10 -1 -10 4 0 6 5 11 10 11 6 0 10 -2 10 -4z m-390 -30 c0 -3 -4
-8 -10 -11 -5 -3 -10 -1 -10 4 0 6 5 11 10 11 6 0 10 -2 10 -4z m-135 -16 c3
-5 1 -10 -4 -10 -6 0 -11 5 -11 10 0 6 2 10 4 10 3 0 8 -4 11 -10z m-20 -49
c-8 -13 -42 -14 -49 -2 -4 5 2 7 13 4 10 -3 22 0 26 7 4 6 9 9 12 6 3 -2 2 -9
-2 -15z m-32 -36 c4 -8 2 -17 -3 -20 -6 -4 -10 3 -10 14 0 25 6 27 13 6z m37
-37 c0 -6 -3 -8 -6 -5 -4 3 -15 2 -25 -4 -12 -6 -19 -6 -19 0 0 8 16 16 43 20
4 0 7 -4 7 -11z m170 -23 c0 -8 -2 -15 -4 -15 -2 0 -6 7 -10 15 -3 8 -1 15 4
15 6 0 10 -7 10 -15z m19 -79 c14 -57 14 -66 -1 -66 -8 0 -13 13 -12 32 1 18
-1 38 -5 43 -9 16 -10 35 -1 35 4 0 13 -20 19 -44z m428 12 c-3 -8 -6 -5 -6 6
-1 11 2 17 5 13 3 -3 4 -12 1 -19z m7 -162 c1 -53 -1 -96 -6 -96 -4 0 -8 14
-8 30 0 17 -5 30 -10 30 -7 0 -9 13 -5 33 4 17 8 48 10 67 4 45 4 44 11 37 3
-3 7 -49 8 -101z m-668 67 c-10 -10 -19 5 -10 18 6 11 8 11 12 0 2 -7 1 -15
-2 -18z m260 -54 c10 -42 9 -49 -4 -49 -8 0 -13 3 -10 6 4 3 1 20 -6 37 -11
28 -12 38 -7 64 3 16 17 -13 27 -58z m244 21 c0 -5 -5 -10 -11 -10 -5 0 -7 5
-4 10 3 6 8 10 11 10 2 0 4 -4 4 -10z m-230 -95 c0 -8 -7 -15 -16 -15 -14 0
-14 3 -4 15 7 8 14 15 16 15 2 0 4 -7 4 -15z m0 -41 c0 -8 -5 -12 -10 -9 -6 4
-8 11 -5 16 9 14 15 11 15 -7z m270 -10 c0 -8 -4 -14 -8 -14 -4 0 -8 9 -8 19
0 11 4 17 8 15 4 -3 8 -12 8 -20z m-560 -14 c0 -5 -2 -10 -4 -10 -3 0 -8 5
-11 10 -3 6 -1 10 4 10 6 0 11 -4 11 -10z m307 -6 c-3 -3 -12 -4 -19 -1 -8 3
-5 6 6 6 11 1 17 -2 13 -5z m375 -33 c2 -17 1 -28 -4 -25 -8 5 -12 54 -4 54 2
0 6 -13 8 -29z m-135 -43 c-3 -8 -6 -5 -6 6 -1 11 2 17 5 13 3 -3 4 -12 1 -19z
m-207 2 c0 -5 -2 -10 -4 -10 -3 0 -8 5 -11 10 -3 6 -1 10 4 10 6 0 11 -4 11
-10z m5 -30 c3 -6 -1 -7 -9 -4 -18 7 -21 14 -7 14 6 0 13 -4 16 -10z m-351
-31 c-3 -44 -14 -49 -14 -6 0 21 4 37 8 37 5 0 7 -14 6 -31z m269 -19 c3 -11
1 -20 -4 -20 -5 0 -9 9 -9 20 0 11 2 20 4 20 2 0 6 -9 9 -20z m427 6 c0 -3 -4
-8 -10 -11 -5 -3 -10 -1 -10 4 0 6 5 11 10 11 6 0 10 -2 10 -4z m-620 -49 c0
-18 -2 -19 -10 -7 -13 20 -13 43 0 35 6 -3 10 -16 10 -28z m210 -46 c4 -17 5
-33 1 -35 -4 -3 -8 0 -8 7 0 7 -3 26 -7 42 -10 39 2 27 14 -14z m-210 9 c0 -5
-4 -12 -10 -15 -5 -3 -10 -4 -10 -1 0 2 -3 12 -6 20 -5 12 -2 15 10 10 9 -3
16 -10 16 -14z m-83 -70 c-5 -67 -17 -94 -17 -38 0 39 10 98 17 98 2 0 2 -27
0 -60z m383 40 c0 -4 -6 -10 -14 -13 -10 -4 -12 0 -9 14 5 18 23 18 23 -1z
m-230 -10 c0 -5 -2 -10 -4 -10 -3 0 -8 5 -11 10 -3 6 -1 10 4 10 6 0 11 -4 11
-10z m-66 -30 c7 -7 6 -10 -1 -10 -7 0 -15 5 -18 10 -4 6 -10 8 -15 5 -5 -3
-11 -1 -15 4 -7 13 35 5 49 -9z m523 -82 c-3 -7 -5 -2 -5 12 0 14 2 19 5 13 2
-7 2 -19 0 -25z m-453 -29 c-2 -22 1 -51 6 -65 6 -15 6 -24 0 -24 -28 0 -47
105 -21 120 9 5 16 10 17 10 1 0 0 -18 -2 -41z m188 3 c-6 -2 -12 -11 -12 -20
0 -15 -2 -15 -10 -2 -17 26 -12 39 12 32 12 -3 17 -7 10 -10z m125 -34 c-3 -7
-5 -2 -5 12 0 14 2 19 5 13 2 -7 2 -19 0 -25z m141 7 c-3 -3 -9 2 -12 12 -6
14 -5 15 5 6 7 -7 10 -15 7 -18z m-263 -52 c3 -13 2 -23 -3 -23 -5 0 -12 14
-14 30 -5 33 6 28 17 -7z m145 -1 c0 -15 -2 -15 -10 -2 -13 20 -13 33 0 25 6
-3 10 -14 10 -23z m112 -84 c-3 -22 -7 -36 -11 -30 -3 6 -4 32 -2 59 2 29 6
41 10 30 4 -10 5 -36 3 -59z m-622 -68 c-10 -23 -10 -22 -5 9 3 18 6 45 7 60
1 19 2 16 5 -9 2 -20 -1 -47 -7 -60z m127 58 c-3 -8 -6 -5 -6 6 -1 11 2 17 5
13 3 -3 4 -12 1 -19z m275 -107 c2 -17 1 -28 -4 -25 -8 5 -12 54 -4 54 2 0 6
-13 8 -29z m-319 -7 c-4 -12 -8 -13 -14 -3 -9 15 -2 32 11 24 5 -3 6 -13 3
-21z m524 -51 c-3 -10 -5 -4 -5 12 0 17 2 24 5 18 2 -7 2 -21 0 -30z m-75 -18
c3 -14 1 -25 -3 -25 -5 0 -9 11 -9 25 0 14 2 25 4 25 2 0 6 -11 8 -25z m-95
-47 c-3 -8 -6 -5 -6 6 -1 11 2 17 5 13 3 -3 4 -12 1 -19z m10 -50 c-3 -8 -6
-5 -6 6 -1 11 2 17 5 13 3 -3 4 -12 1 -19z m-284 -58 c-3 -12 -8 -19 -11 -16
-5 6 5 36 12 36 2 0 2 -9 -1 -20z m-128 -248 c-3 -3 -11 0 -18 7 -9 10 -8 11
6 5 10 -3 15 -9 12 -12z m51 11 c-10 -11 -37 -12 -30 -2 3 5 12 9 21 9 9 0 13
-3 9 -7z"/>
<path d="M3379 5555 c-2 -1 -30 -6 -61 -9 -32 -3 -71 -12 -87 -20 -38 -20
-122 -115 -156 -177 -26 -49 -76 -231 -96 -354 -6 -33 -15 -73 -20 -90 -23
-67 -30 -511 -10 -590 7 -27 19 -81 28 -120 8 -38 21 -90 28 -115 8 -25 19
-65 26 -90 7 -25 13 -47 14 -50 6 -20 50 -101 70 -130 38 -52 125 -140 140
-140 8 0 27 -11 44 -25 58 -49 207 -30 300 38 70 51 84 68 112 136 12 30 37
77 56 105 68 103 96 249 96 493 0 128 -1 133 -27 163 -14 17 -26 36 -26 41 0
5 -18 9 -40 9 -23 0 -55 7 -71 16 -28 14 -33 14 -48 0 -11 -10 -42 -15 -100
-17 -114 -3 -128 -15 -134 -122 -2 -49 0 -80 7 -84 6 -4 32 -8 59 -10 90 -5
113 -31 133 -148 6 -32 6 -160 1 -185 -15 -68 -23 -89 -43 -121 -35 -56 -86
-90 -136 -92 -24 -1 -44 2 -45 7 -1 5 -14 15 -30 23 -23 10 -36 31 -61 96 -32
81 -49 133 -57 172 -13 60 -16 72 -20 94 -24 126 -24 391 0 448 8 20 17 68 20
107 8 109 14 141 50 260 18 61 36 125 39 141 9 40 45 82 77 90 48 12 90 -41
140 -173 9 -24 16 -31 28 -26 9 3 59 22 111 42 52 20 97 37 99 39 12 8 -1 59
-32 124 -19 41 -38 83 -41 94 -16 53 -102 115 -187 134 -50 11 -145 22 -150
16z m-14 -80 c-16 -7 -32 -11 -35 -9 -7 8 24 24 45 23 15 0 13 -4 -10 -14z
m10 -55 c-3 -5 -12 -10 -18 -10 -7 0 -6 4 3 10 19 12 23 12 15 0z m-252 -55
c-3 -9 -8 -14 -10 -11 -3 3 -2 9 2 15 9 16 15 13 8 -4z m312 -5 c-3 -5 -14
-10 -23 -9 -14 0 -13 2 3 9 27 11 27 11 20 0z m-200 -47 c-38 -105 -95 -209
-95 -174 0 6 4 11 8 11 4 0 9 11 10 25 1 14 13 48 27 75 14 27 26 53 27 57 3
8 31 43 35 43 1 0 -4 -17 -12 -37z m312 11 c-3 -3 -12 -4 -19 -1 -8 3 -5 6 6
6 11 1 17 -2 13 -5z m73 -54 c-8 -5 -19 -10 -25 -10 -5 0 -3 5 5 10 8 5 20 10
25 10 6 0 3 -5 -5 -10z m124 -26 c3 -8 2 -12 -4 -9 -6 3 -10 10 -10 16 0 14 7
11 14 -7z m-596 -39 c-3 -3 -9 2 -12 12 -6 14 -5 15 5 6 7 -7 10 -15 7 -18z
m-28 -35 c-6 -11 -13 -20 -16 -20 -2 0 0 9 6 20 6 11 13 20 16 20 2 0 0 -9 -6
-20z m457 -22 c-3 -8 -6 -5 -6 6 -1 11 2 17 5 13 3 -3 4 -12 1 -19z m-444 -48
c-3 -11 -7 -20 -9 -20 -2 0 -4 9 -4 20 0 11 4 20 9 20 5 0 7 -9 4 -20z m7 -70
c0 -5 -5 -10 -11 -10 -5 0 -7 5 -4 10 3 6 8 10 11 10 2 0 4 -4 4 -10z m-20
-70 c0 -11 -2 -20 -4 -20 -2 0 -6 9 -9 20 -3 11 -1 20 4 20 5 0 9 -9 9 -20z
m-47 -7 c-7 -2 -19 -2 -25 0 -7 3 -2 5 12 5 14 0 19 -2 13 -5z m110 -85 c-3
-27 -9 -48 -13 -48 -4 0 -4 19 1 43 4 23 8 46 9 51 0 5 2 7 4 5 2 -2 2 -25 -1
-51z m-47 -22 c-6 -25 -13 -43 -17 -41 -8 5 12 85 21 85 4 0 2 -20 -4 -44z
m-19 -88 c-3 -8 -6 -5 -6 6 -1 11 2 17 5 13 3 -3 4 -12 1 -19z m79 -7 c-4 -6
-13 -11 -19 -10 -9 0 -9 2 0 5 7 3 9 13 6 22 -5 13 -3 14 7 5 7 -6 9 -16 6
-22z m-13 -28 c-7 -2 -19 -2 -25 0 -7 3 -2 5 12 5 14 0 19 -2 13 -5z m4 -19
c-3 -3 -12 -4 -19 -1 -8 3 -5 6 6 6 11 1 17 -2 13 -5z m-154 -85 c-4 -13 -9
-17 -15 -11 -11 11 -3 32 12 32 4 0 6 -9 3 -21z m41 -42 c23 -17 19 -62 -4
-47 -13 9 -13 11 0 20 14 9 7 14 -13 11 -5 -1 -6 3 -3 8 4 5 -6 12 -21 14 -28
4 -28 4 -2 6 14 0 33 -5 43 -12z m387 -60 c-8 -8 -11 -2 -11 19 0 40 14 54 18
19 2 -15 -1 -32 -7 -38z m124 20 c-4 -20 -13 -38 -21 -41 -18 -7 -18 -4 3 43
20 47 27 46 18 -2z m202 21 c-3 -8 -6 -5 -6 6 -1 11 2 17 5 13 3 -3 4 -12 1
-19z m-752 -20 c-19 -11 -30 -5 -21 11 4 6 14 7 22 4 15 -5 14 -7 -1 -15z
m586 -1 c-10 -9 -11 -8 -5 6 3 10 9 15 12 12 3 -3 0 -11 -7 -18z m42 3 c-3
-11 -9 -20 -15 -20 -5 0 -4 9 2 20 6 11 12 20 14 20 2 0 2 -9 -1 -20z m-486
-5 c0 -8 -4 -15 -9 -15 -10 0 -11 14 -1 23 9 10 10 9 10 -8z m-137 -51 c0 -5
-7 -19 -16 -30 -15 -18 -15 -18 -5 2 7 14 7 24 -1 32 -5 5 -7 16 -3 22 6 9 10
9 16 -1 5 -8 9 -19 9 -25z m133 5 c4 -16 3 -18 -9 -8 -7 6 -11 15 -8 20 8 13
11 11 17 -12z m290 -2 c3 -8 1 -20 -4 -28 -6 -10 -9 -7 -9 14 0 29 5 35 13 14z
m145 1 c-2 -6 -15 -15 -28 -20 -25 -9 -25 -9 -5 11 22 22 39 27 33 9z m-538
-29 c0 -5 5 -7 10 -4 6 4 5 -5 -2 -19 -15 -34 -23 -33 -24 4 -1 17 3 30 7 30
5 0 9 -5 9 -11z m767 -30 c2 -23 -2 -49 -7 -58 -7 -11 -9 0 -10 42 0 65 14 78
17 16z m-651 -49 c10 -88 0 -95 -16 -11 -12 65 -13 91 -2 91 5 0 13 -36 18
-80z m444 34 c0 -8 -4 -12 -10 -9 -5 3 -10 10 -10 16 0 5 5 9 10 9 6 0 10 -7
10 -16z m16 -67 c-10 -16 -11 -16 -17 5 -8 30 -1 41 15 26 10 -10 11 -17 2
-31z m4 -52 c0 -14 -2 -25 -4 -25 -2 0 -6 11 -8 25 -3 14 -1 25 3 25 5 0 9
-11 9 -25z m177 -32 c-9 -78 -28 -153 -38 -153 -9 0 -1 55 13 83 5 10 5 17 -1
17 -10 0 -3 39 11 56 5 7 8 16 7 20 -2 14 1 24 7 24 4 0 4 -21 1 -47z m-163
-18 c3 -8 1 -15 -4 -15 -6 0 -10 7 -10 15 0 8 2 15 4 15 2 0 6 -7 10 -15z
m-648 -40 c9 -39 0 -30 -15 15 -6 19 -7 30 -2 25 5 -6 13 -23 17 -40z m694 -1
c0 -8 -4 -12 -10 -9 -5 3 -10 10 -10 16 0 5 5 9 10 9 6 0 10 -7 10 -16z m-557
-9 c-3 -9 -8 -14 -10 -11 -3 3 -2 9 2 15 9 16 15 13 8 -4z m-108 -35 c3 -6 -1
-7 -9 -4 -18 7 -21 14 -7 14 6 0 13 -4 16 -10z m12 -60 c0 -35 -11 -31 -25 9
-9 25 -8 28 7 24 12 -3 18 -14 18 -33z m737 -33 c-3 -12 -20 -53 -37 -90 -28
-62 -32 -67 -46 -52 -12 12 -13 18 -4 23 7 4 24 33 38 65 15 31 31 59 36 62 5
4 6 11 3 17 -4 7 -2 8 5 4 7 -5 9 -17 5 -29z m-147 -19 c-3 -8 -6 -5 -6 6 -1
11 2 17 5 13 3 -3 4 -12 1 -19z m54 -41 c-10 -9 -11 -8 -5 6 3 10 9 15 12 12
3 -3 0 -11 -7 -18z m-131 -257 c0 -5 -5 -10 -11 -10 -5 0 -7 5 -4 10 3 6 8 10
11 10 2 0 4 -4 4 -10z"/>
<path d="M5531 5538 c-64 -11 -120 -52 -121 -88 0 -12 2 -12 9 -2 15 24 18 -7
13 -123 -2 -60 -4 -141 -4 -180 2 -91 2 -150 -1 -655 -1 -234 2 -492 7 -575 5
-82 9 -186 9 -230 1 -44 5 -83 10 -86 6 -4 23 -3 39 2 22 6 30 4 35 -7 3 -7
14 -14 24 -14 21 0 26 16 7 23 -7 2 6 10 29 16 60 16 58 10 67 186 4 66 9 149
11 185 8 130 17 326 17 360 l0 34 14 -26 c19 -37 79 -218 105 -320 12 -45 25
-90 29 -98 5 -9 20 -60 35 -115 14 -55 33 -115 41 -133 14 -30 17 -31 36 -18
20 14 30 14 123 -4 47 -9 91 -7 103 5 8 7 -15 78 -58 180 -30 72 -101 272
-105 295 0 3 -14 43 -30 90 -16 47 -30 87 -30 90 -1 3 -4 12 -7 20 -3 8 -15
50 -27 93 -21 74 -21 97 -1 97 12 0 104 62 109 74 2 5 11 16 20 25 15 15 35
69 47 125 18 83 21 119 22 218 1 158 -26 285 -84 399 -47 93 -90 129 -180 149
-61 14 -254 19 -313 8z m-64 -120 c-3 -8 -6 -5 -6 6 -1 11 2 17 5 13 3 -3 4
-12 1 -19z m240 -4 c-3 -3 -12 -4 -19 -1 -8 3 -5 6 6 6 11 1 17 -2 13 -5z m28
-84 c3 -5 1 -10 -4 -10 -6 0 -11 5 -11 10 0 6 2 10 4 10 3 0 8 -4 11 -10z m28
-55 c79 -74 129 -303 93 -426 -18 -64 -67 -136 -100 -148 -46 -18 -69 -17 -74
4 -5 21 -7 331 -3 498 l2 97 27 0 c15 0 39 -11 55 -25z m-116 -17 c-3 -8 -6
-5 -6 6 -1 11 2 17 5 13 3 -3 4 -12 1 -19z m-186 -98 c-9 -22 -10 -20 -10 20
-1 25 3 56 7 70 6 21 7 17 10 -20 2 -25 -1 -57 -7 -70z m186 58 c-3 -8 -6 -5
-6 6 -1 11 2 17 5 13 3 -3 4 -12 1 -19z m-190 -200 c-3 -8 -6 -5 -6 6 -1 11 2
17 5 13 3 -3 4 -12 1 -19z m550 -43 c0 -8 -7 -15 -14 -15 -8 0 -12 -4 -8 -9 3
-5 1 -12 -5 -16 -18 -11 -11 27 8 41 9 7 17 14 18 14 0 0 1 -7 1 -15z m73 -22
c0 -22 -2 -25 -10 -13 -13 20 -13 40 0 40 6 0 10 -12 10 -27z m-173 -35 c-3
-7 -5 -2 -5 12 0 14 2 19 5 13 2 -7 2 -19 0 -25z m96 -27 c-4 -16 -8 -19 -14
-10 -4 7 -3 19 3 26 14 18 19 12 11 -16z m-356 -16 c-5 -40 -17 -42 -15 -3 2
20 6 34 11 31 4 -2 6 -15 4 -28z m-174 13 c-6 -7 -9 -48 -8 -90 1 -43 -1 -78
-5 -78 -3 0 -5 35 -5 78 0 70 7 102 22 102 3 0 1 -6 -4 -12z m434 -30 c-3 -8
-6 -5 -6 6 -1 11 2 17 5 13 3 -3 4 -12 1 -19z m56 -35 c5 -26 2 -42 -7 -32 -9
11 -15 59 -7 59 5 0 11 -12 14 -27z m92 17 c3 -5 1 -10 -4 -10 -6 0 -11 5 -11
10 0 6 2 10 4 10 3 0 8 -4 11 -10z m-428 -62 c-3 -8 -6 -5 -6 6 -1 11 2 17 5
13 3 -3 4 -12 1 -19z m-94 -28 c-3 -12 -8 -19 -11 -16 -5 6 5 36 12 36 2 0 2
-9 -1 -20z m-6 -92 c-3 -7 -5 -2 -5 12 0 14 2 19 5 13 2 -7 2 -19 0 -25z m168
-20 c-11 -6 -23 -16 -27 -22 -5 -7 -8 -5 -8 5 0 21 9 29 34 29 21 -1 21 -1 1
-12z m95 -128 c-6 -4 -8 -15 -4 -26 4 -10 4 -16 -1 -12 -4 4 -9 24 -11 45 -4
35 -3 37 11 19 10 -13 11 -22 5 -26z m-329 -112 c-1 -40 -4 -75 -7 -77 -3 -3
-4 32 -3 77 1 46 4 80 7 77 3 -2 4 -37 3 -77z m110 -35 c-8 -15 -10 -15 -11
-2 0 17 10 32 18 25 2 -3 -1 -13 -7 -23z m344 -43 c3 -5 2 -10 -4 -10 -5 0
-13 5 -16 10 -3 6 -2 10 4 10 5 0 13 -4 16 -10z m-348 -22 c-3 -8 -6 -5 -6 6
-1 11 2 17 5 13 3 -3 4 -12 1 -19z m363 -6 c0 -5 -7 -9 -15 -9 -8 0 -15 4 -15
9 0 4 7 8 15 8 8 0 15 -4 15 -8z m-473 -64 c-3 -8 -6 -5 -6 6 -1 11 2 17 5 13
3 -3 4 -12 1 -19z m112 -55 c-1 -58 -2 -63 -9 -34 -7 31 -3 101 6 101 2 0 4
-30 3 -67z m378 42 c0 -8 -4 -12 -9 -9 -5 3 -6 10 -3 15 9 13 12 11 12 -6z
m-50 -51 c-3 -3 -12 -4 -19 -1 -8 3 -5 6 6 6 11 1 17 -2 13 -5z m53 -94 c0 -5
-4 -10 -10 -10 -5 0 -10 5 -10 10 0 6 5 10 10 10 6 0 10 -4 10 -10z m-392 -79
c-2 -22 -6 -37 -9 -33 -7 7 0 72 7 72 3 0 3 -18 2 -39z m399 24 c0 -8 -4 -12
-9 -9 -4 3 -8 9 -8 15 0 5 4 9 8 9 5 0 9 -7 9 -15z m-477 -40 c0 -8 -4 -15
-10 -15 -5 0 -10 7 -10 15 0 8 5 15 10 15 6 0 10 -7 10 -15z m502 -189 c-3 -5
-9 -1 -12 10 -4 10 -5 23 -2 28 3 5 9 1 12 -10 4 -10 5 -23 2 -28z m-358 19
c3 -8 1 -15 -4 -15 -6 0 -10 7 -10 15 0 8 2 15 4 15 2 0 6 -7 10 -15z m299
-15 c3 -11 1 -18 -4 -14 -5 3 -9 12 -9 20 0 20 7 17 13 -6z m117 -62 c0 -13
-53 -6 -57 8 -2 7 8 9 27 6 16 -2 30 -9 30 -14z m-438 -43 c3 -14 2 -25 -2
-25 -4 0 -10 11 -12 25 -3 14 -2 25 2 25 4 0 10 -11 12 -25z"/>
<path d="M298 5522 c-61 -2 -90 -7 -98 -17 -12 -15 -3 -21 23 -16 5 1 6 -3 2
-9 -3 -6 -11 -8 -16 -5 -10 7 -11 -14 -9 -145 1 -47 5 -89 9 -93 4 -4 4 -31 0
-60 -4 -29 -10 -297 -14 -597 -3 -300 -7 -583 -8 -630 -1 -50 3 -93 10 -107 6
-13 8 -23 2 -23 -5 0 -9 -4 -9 -10 0 -5 6 -10 14 -10 19 0 25 -32 9 -45 -12
-9 -19 -88 -14 -156 1 -14 14 -16 103 -13 136 5 139 8 138 109 -1 44 -1 89 0
100 1 11 1 31 0 45 -1 14 -3 106 -4 205 0 99 -5 186 -9 192 -9 14 -12 151 -4
173 4 8 8 30 11 49 3 18 8 37 13 42 4 4 64 9 133 10 l125 3 3 -160 c1 -87 3
-172 3 -189 0 -16 -2 -143 -4 -282 -4 -206 -3 -254 9 -264 8 -6 50 -11 98 -11
74 -1 88 2 114 23 29 24 29 25 27 119 -4 143 -4 154 -12 146 -4 -3 -10 -25
-14 -49 -7 -39 -8 -38 -3 8 3 28 7 70 10 95 3 25 5 53 5 63 0 9 0 25 0 35 0 9
2 98 3 197 2 99 7 198 12 220 6 22 9 85 7 139 -1 55 2 107 7 115 4 9 4 50 -1
91 -5 41 -11 154 -14 250 -7 194 -10 242 -21 314 -5 34 -3 50 6 56 9 5 6 13
-12 30 -23 22 -23 22 0 11 18 -9 22 -9 22 2 0 31 -33 45 -105 42 -38 -1 -81 2
-94 6 -36 14 -48 -4 -49 -69 -1 -31 -2 -81 -4 -110 -2 -28 0 -52 4 -52 4 0 3
-13 -2 -29 -4 -15 -5 -46 -1 -67 4 -22 6 -66 4 -99 -3 -67 -9 -205 -11 -277
l-2 -47 -42 5 c-63 8 -77 11 -151 28 -87 20 -85 21 -90 -11 -3 -16 -3 -3 -1
27 5 61 14 276 13 300 0 21 1 60 4 95 1 17 -2 29 -8 28 -5 -1 -11 26 -13 59
-2 40 0 58 7 53 15 -9 2 147 -13 160 -6 6 -50 9 -98 7z m599 -38 c-3 -3 -12
-4 -19 -1 -8 3 -5 6 6 6 11 1 17 -2 13 -5z m-567 -188 c0 -3 -4 -8 -10 -11 -5
-3 -10 -1 -10 4 0 6 5 11 10 11 6 0 10 -2 10 -4z m-53 -138 c-3 -8 -6 -5 -6 6
-1 11 2 17 5 13 3 -3 4 -12 1 -19z m613 -244 c0 -8 -5 -12 -10 -9 -6 4 -8 11
-5 16 9 14 15 11 15 -7z m-70 -26 c0 -23 -3 -29 -11 -21 -6 6 -8 20 -4 32 9
30 15 26 15 -11z m100 -62 c0 -3 -4 -8 -10 -11 -5 -3 -10 -1 -10 4 0 6 5 11
10 11 6 0 10 -2 10 -4z m-428 -58 c-5 -5 -21 -6 -37 -2 -33 8 -15 23 21 16 16
-3 22 -8 16 -14z m-208 -33 c3 -8 1 -15 -4 -15 -6 0 -10 7 -10 15 0 8 2 15 4
15 2 0 6 -7 10 -15z m116 -39 c0 -14 -8 -27 -17 -31 -15 -5 -16 -4 -5 6 6 7
12 21 12 31 0 10 2 18 5 18 3 0 5 -11 5 -24z m123 -3 c-7 -2 -19 -2 -25 0 -7
3 -2 5 12 5 14 0 19 -2 13 -5z m124 1 c-3 -3 -12 -4 -19 -1 -8 3 -5 6 6 6 11
1 17 -2 13 -5z m-144 -81 c-7 -2 -19 -2 -25 0 -7 3 -2 5 12 5 14 0 19 -2 13
-5z m42 -3 c3 -6 -1 -7 -9 -4 -18 7 -21 14 -7 14 6 0 13 -4 16 -10z m138 3
c-13 -2 -33 -2 -45 0 -13 2 -3 4 22 4 25 0 35 -2 23 -4z m-406 -45 c-3 -7 -5
-2 -5 12 0 14 2 19 5 13 2 -7 2 -19 0 -25z m539 -33 c-4 -24 -16 -30 -16 -7 0
12 4 22 9 22 5 0 8 -7 7 -15z m-484 -300 c-2 -14 -6 -25 -8 -25 -2 0 -4 11 -4
25 0 14 4 25 9 25 4 0 6 -11 3 -25z m0 -90 c-7 -39 -18 -38 -14 1 2 18 8 32
12 29 4 -2 5 -16 2 -30z m-5 -144 c4 -52 2 -71 -7 -71 -8 0 -10 8 -6 24 3 14
3 27 -2 30 -4 2 -6 25 -4 51 5 64 13 50 19 -34z m-14 -171 c-7 -27 -13 -25
-11 4 1 14 5 23 9 20 4 -2 5 -13 2 -24z m-86 -2 c-3 -8 -6 -5 -6 6 -1 11 2 17
5 13 3 -3 4 -12 1 -19z m80 -70 c-3 -8 -6 -5 -6 6 -1 11 2 17 5 13 3 -3 4 -12
1 -19z m90 -20 c-3 -8 -6 -5 -6 6 -1 11 2 17 5 13 3 -3 4 -12 1 -19z m443 -44
c0 -8 -5 -12 -10 -9 -6 4 -8 11 -5 16 9 14 15 11 15 -7z m45 6 c-3 -5 0 -10 7
-10 8 0 14 -9 14 -20 0 -11 -4 -20 -8 -20 -4 0 -8 6 -8 14 0 8 -5 16 -12 18
-10 4 -4 28 8 28 3 0 2 -4 -1 -10z m-628 -52 c-3 -8 -6 -5 -6 6 -1 11 2 17 5
13 3 -3 4 -12 1 -19z"/>
<path d="M1438 5523 c-11 -3 -22 -21 -28 -46 -6 -23 -13 -50 -16 -60 -3 -9 -7
-43 -9 -75 -1 -31 -8 -70 -15 -87 -7 -16 -14 -43 -16 -60 -3 -16 -9 -42 -14
-57 -5 -15 -6 -36 -3 -47 3 -11 -5 -62 -17 -114 -11 -52 -22 -111 -23 -131 -1
-20 -5 -36 -8 -36 -3 0 -6 -14 -7 -30 0 -17 -8 -53 -17 -81 -9 -27 -14 -56
-11 -64 3 -8 2 -15 -2 -15 -5 0 -9 -10 -9 -22 -1 -13 -8 -45 -16 -73 -8 -27
-17 -86 -21 -130 -3 -44 -8 -96 -11 -115 -9 -55 -75 -362 -85 -395 -6 -16 -14
-57 -19 -90 -6 -33 -14 -80 -19 -104 -6 -25 -8 -50 -5 -57 7 -19 83 -35 148
-32 51 3 60 6 57 21 -2 11 4 17 18 17 18 0 26 20 21 53 0 4 4 7 10 7 7 0 10
17 7 45 -2 25 0 45 3 45 10 0 29 57 22 64 -4 3 -2 6 4 6 6 0 9 9 6 20 -4 13 2
29 15 43 11 12 23 37 27 55 7 36 7 35 119 34 102 -2 144 -19 137 -56 -1 -5 5
-41 14 -80 8 -39 17 -107 19 -151 2 -44 5 -83 5 -87 1 -10 166 -10 200 -1 21
5 23 10 17 51 -3 25 -11 51 -17 59 -6 7 -13 30 -14 51 -3 35 -11 93 -19 137
-2 11 -7 40 -10 65 -4 25 -11 65 -16 90 -5 25 -18 95 -29 155 -10 61 -24 137
-30 170 -6 33 -13 87 -17 120 -3 33 -9 66 -14 74 -4 8 -6 30 -3 50 3 20 -2 64
-11 97 -9 34 -16 79 -16 101 0 21 -4 43 -9 49 -6 5 -13 34 -16 64 -9 87 -42
230 -76 331 -17 52 -32 108 -33 124 -6 69 -15 83 -59 90 -23 4 -49 8 -57 9 -8
2 -23 1 -32 -1z m219 -537 c2 -40 -3 -45 -23 -19 -8 12 -9 22 -3 30 7 7 6 13
-1 18 -18 11 -12 27 7 16 10 -5 18 -23 20 -45z m-46 -113 c13 -16 12 -17 -3
-4 -17 13 -22 21 -14 21 2 0 10 -8 17 -17z m-141 -55 c0 -18 -2 -20 -9 -8 -6
8 -7 18 -5 22 9 14 14 9 14 -14z m59 -80 c1 -35 4 -76 6 -93 2 -16 7 -55 10
-85 4 -30 9 -58 12 -62 2 -5 6 -23 8 -41 2 -18 6 -59 10 -92 5 -33 8 -66 8
-72 0 -7 3 -13 7 -13 4 0 7 -6 7 -12 0 -7 3 -30 7 -50 8 -45 4 -46 -74 -19
-30 11 -71 22 -90 24 -19 3 -36 6 -36 6 -1 1 2 19 6 42 6 31 4 42 -7 46 -8 3
-12 12 -8 21 3 8 0 19 -7 23 -10 6 -4 16 20 38 17 16 32 38 33 48 0 10 2 33 3
50 2 18 0 30 -4 28 -5 -3 -3 7 5 22 7 16 16 46 19 68 4 23 8 50 10 62 3 11 7
37 10 58 7 44 24 78 35 71 4 -3 9 -34 10 -68z m88 -30 c-3 -7 -5 -2 -5 12 0
14 2 19 5 13 2 -7 2 -19 0 -25z m83 -28 c6 -20 6 -30 1 -24 -11 10 -27 72 -17
63 4 -4 11 -21 16 -39z m-48 -160 c5 -36 -8 -41 -14 -5 -4 21 -1 35 8 35 1 0
4 -13 6 -30z m20 -68 c6 -22 -1 -44 -12 -37 -5 3 -7 12 -3 20 3 9 0 22 -7 30
-11 13 -10 14 3 10 8 -4 17 -14 19 -23z m-159 -339 c-13 -2 -35 -2 -50 0 -16
2 -5 4 22 4 28 0 40 -2 28 -4z m315 -134 c-3 -8 -7 -3 -11 10 -4 17 -3 21 5
13 5 -5 8 -16 6 -23z m-61 15 c-3 -3 -12 -4 -19 -1 -8 3 -5 6 6 6 11 1 17 -2
13 -5z"/>
<path d="M6664 3214 c-33 -14 -32 -15 16 -20 19 -1 64 -6 100 -10 54 -5 68 -3
79 10 12 14 9 16 -33 16 -25 0 -49 1 -53 2 -53 12 -85 13 -109 2z"/>
<path d="M4747 3214 c-3 -3 -36 -8 -74 -11 -73 -5 -110 -22 -76 -34 17 -6 50
-5 137 6 48 6 68 21 46 35 -18 11 -25 12 -33 4z"/>
<path d="M6083 3212 c-82 -2 -110 -11 -85 -25 4 -3 42 -8 85 -12 83 -8 149 7
128 28 -13 13 -12 13 -128 9z"/>
<path d="M6339 3204 c-7 -8 -9 -17 -6 -20 6 -6 121 -6 152 0 11 3 22 5 25 6 3
0 -4 6 -15 12 -30 18 -142 19 -156 2z"/>
<path d="M4283 3192 c-9 -21 5 -27 69 -29 65 -1 118 12 118 30 0 18 -181 16
-187 -1z"/>
<path d="M5665 3200 c-16 -26 146 -45 205 -24 12 5 12 8 -4 20 -23 17 -191 20
-201 4z"/>
<path d="M900 3197 c-3 -3 -47 -7 -98 -10 -51 -2 -95 -7 -98 -10 -11 -11 45
-39 66 -32 11 4 46 8 76 10 63 4 67 6 62 30 -1 9 -5 15 -8 12z"/>
<path d="M4944 3185 c-15 -11 -13 -13 19 -19 58 -11 178 -9 191 4 20 20 -16
30 -106 29 -52 -1 -94 -6 -104 -14z"/>
<path d="M5370 3194 c-8 -2 -32 -5 -53 -9 -31 -5 -36 -9 -27 -20 9 -11 33 -13
108 -8 96 5 132 14 132 34 0 8 -113 11 -160 3z"/>
<path d="M2317 3183 c-5 -4 -43 -8 -87 -9 -43 -1 -86 -7 -96 -12 -14 -8 -12
-11 17 -21 60 -19 215 5 206 32 -4 14 -30 21 -40 10z"/>
<path d="M2830 3169 c0 -23 31 -29 126 -25 55 2 89 9 105 20 27 19 33 18 -118
20 -99 1 -113 -1 -113 -15z"/>
<path d="M3947 3183 c-24 -3 -37 -9 -34 -16 2 -8 39 -13 111 -15 99 -2 107 -1
104 15 -3 15 -14 18 -73 19 -39 0 -87 -1 -108 -3z"/>
<path d="M466 3170 c-42 -5 -59 -24 -29 -32 29 -7 125 0 156 11 70 27 5 38
-127 21z"/>
<path d="M1616 3172 c-3 -6 -49 -9 -102 -8 -110 3 -153 -13 -88 -31 22 -6 68
-9 104 -8 84 3 83 3 104 18 16 12 16 15 3 26 -9 7 -18 8 -21 3z"/>
<path d="M1893 3167 c-16 -4 -40 -5 -55 -3 -34 7 -58 -2 -58 -20 0 -10 20 -12
102 -8 93 5 117 12 118 35 0 8 -73 6 -107 -4z"/>
<path d="M2587 3174 c-2 -2 -26 -4 -54 -5 -40 -2 -50 -5 -48 -18 1 -13 16 -15
78 -15 77 1 142 19 131 35 -5 8 -99 10 -107 3z"/>
<path d="M3248 3171 c-45 -5 -56 -9 -49 -19 19 -31 95 -31 174 0 65 25 14 33
-125 19z"/>
<path d="M3535 3163 c3 -8 5 -17 5 -19 0 -7 153 -3 179 5 14 4 26 12 29 19 3
10 -22 12 -108 11 -91 -2 -110 -5 -105 -16z"/>
<path d="M208 3162 c-32 -4 -36 -17 -10 -31 36 -19 152 5 137 29 -4 7 -79 9
-127 2z"/>
<path d="M1041 3153 c-14 -15 -16 -14 79 -18 65 -2 115 9 126 26 9 15 -191 6
-205 -8z"/>
<path d="M4160 2816 c-5 -15 -10 -32 -10 -37 0 -5 -4 -9 -10 -9 -5 0 -8 -6 -5
-12 5 -16 15 -133 19 -208 1 -30 6 -71 11 -90 4 -19 8 -65 9 -102 1 -37 5 -70
8 -74 4 -4 3 -15 -2 -25 -12 -22 -4 -46 21 -59 16 -9 20 -5 28 27 6 21 11 71
12 111 2 63 4 72 21 72 27 0 177 -114 205 -156 25 -36 30 -39 50 -26 8 5 1 23
-25 62 -19 30 -43 59 -51 64 -8 5 -33 25 -55 45 -50 44 -79 61 -106 61 -11 0
-20 2 -20 5 0 3 31 46 68 95 82 108 113 162 104 177 -5 8 -16 5 -36 -10 -41
-31 -106 -95 -106 -104 -1 -4 -13 -23 -29 -41 l-28 -32 -1 44 c-3 74 -32 220
-47 235 -12 13 -16 11 -25 -13z"/>
<path d="M242 2806 c-36 -13 -72 -75 -72 -126 0 -36 37 -89 102 -148 116 -104
148 -142 148 -178 0 -46 -31 -64 -110 -66 -60 -2 -63 -1 -93 35 -34 40 -77 57
-77 31 0 -28 30 -72 62 -92 35 -22 140 -52 180 -52 47 0 100 84 100 158 0 43
-4 50 -54 95 -122 113 -174 165 -187 190 -20 37 -7 75 33 94 38 18 63 13 73
-14 9 -25 44 -63 59 -63 16 0 4 56 -21 98 -30 50 -76 63 -143 38z"/>
<path d="M6805 2789 c-10 -43 -13 -93 -14 -256 -1 -73 -4 -133 -8 -133 -10 0
-123 168 -156 231 -13 25 -29 54 -36 64 -6 11 -15 32 -21 48 -13 38 -25 34
-43 -15 -11 -30 -15 -65 -12 -118 2 -41 6 -137 9 -213 3 -75 8 -142 11 -147
26 -41 46 47 44 188 -2 157 -3 155 31 93 17 -30 46 -75 65 -100 97 -131 128
-160 159 -148 13 5 14 32 10 194 -5 201 -5 273 1 283 2 3 -4 19 -15 34 l-18
28 -7 -33z"/>
<path d="M4600 2761 c-6 -24 -9 -66 -5 -95 3 -28 8 -76 10 -106 3 -30 8 -73
11 -95 3 -22 8 -76 10 -120 5 -92 8 -105 28 -105 25 0 26 25 11 310 -2 52 -6
102 -8 110 -2 8 -7 36 -11 62 -5 26 -14 55 -21 65 -12 16 -14 13 -25 -26z"/>
<path d="M4930 2784 c-144 -18 -184 -40 -139 -75 18 -14 35 -18 64 -14 l40 5
3 -98 c2 -54 6 -111 8 -128 3 -16 6 -73 8 -128 2 -70 7 -101 17 -107 8 -5 18
-4 24 2 11 11 12 356 2 418 -8 47 5 68 45 70 18 1 40 3 48 3 8 1 18 6 22 12
28 42 -20 55 -142 40z"/>
<path d="M2149 2778 c-1 -2 -3 -52 -5 -111 -1 -60 -5 -111 -7 -114 -3 -2 -39
-7 -81 -10 l-76 -6 0 101 c0 90 -2 102 -19 112 -11 5 -21 10 -23 10 -5 0 0
-480 5 -503 4 -22 25 -37 43 -30 13 5 27 43 16 43 -4 0 -7 48 -7 108 0 100 1
107 20 108 11 1 44 5 72 9 62 8 69 0 55 -63 -5 -22 -6 -59 -2 -82 4 -23 3 -43
-2 -46 -14 -9 0 -76 19 -89 21 -15 40 -10 45 13 2 9 3 128 3 263 0 229 -1 248
-19 268 -17 18 -33 27 -37 19z"/>
<path d="M2840 2763 c0 -8 -9 -32 -20 -53 -11 -22 -20 -43 -19 -47 1 -5 0 -10
-1 -13 -1 -3 -3 -50 -5 -105 -1 -55 -7 -118 -12 -140 -5 -22 -9 -62 -8 -90 0
-47 2 -50 28 -53 15 -2 27 1 27 7 0 54 24 168 38 179 31 23 48 13 87 -55 53
-93 113 -173 130 -173 38 0 26 37 -48 148 -27 41 -55 88 -62 107 -13 29 -12
34 4 49 19 18 36 66 46 133 5 36 3 43 -21 62 -15 12 -37 21 -50 21 -13 0 -24
4 -24 9 0 11 -48 30 -72 29 -10 -1 -18 -8 -18 -15z m76 -47 c22 -7 44 -11 49
-9 18 6 11 -91 -8 -120 -9 -15 -17 -30 -17 -34 0 -16 -45 -48 -69 -50 -24 -2
-24 -2 -16 75 5 42 9 94 9 115 1 42 0 42 52 23z"/>
<path d="M2550 2760 c-41 -4 -90 -15 -107 -24 -39 -20 -39 -27 -33 -281 2 -44
1 -108 0 -143 -4 -94 10 -102 151 -88 72 8 76 9 71 31 -3 18 -12 24 -40 28
-21 2 -45 1 -55 -2 -10 -4 -34 -5 -53 -3 -34 4 -34 5 -28 41 10 49 12 69 13
113 1 40 5 43 81 53 52 8 54 9 46 30 -7 20 -48 35 -62 24 -6 -5 -26 -6 -43 -3
l-32 7 3 69 c1 38 5 74 9 79 9 15 75 28 135 29 56 0 79 21 44 40 -10 5 -20 9
-22 8 -2 0 -37 -4 -78 -8z"/>
<path d="M3459 2738 c-1 -18 0 -64 1 -103 7 -241 6 -255 -13 -238 -9 9 -15 18
-13 21 8 7 -37 86 -56 100 -21 15 -52 74 -62 117 -4 17 -14 49 -23 72 -15 41
-16 42 -41 29 l-26 -14 -3 -203 c-2 -123 -8 -208 -14 -216 -17 -20 -1 -93 20
-93 44 0 50 19 56 159 3 74 8 138 11 143 11 18 69 -65 157 -222 29 -53 48 -76
64 -78 28 -4 36 22 29 90 -14 146 -25 307 -26 394 0 45 -3 52 -25 62 -35 16
-35 16 -36 -20z"/>
<path d="M5335 2758 c-4 -10 -10 -16 -15 -13 -14 9 -111 -47 -134 -79 -47 -63
-81 -149 -80 -201 1 -60 21 -102 81 -166 56 -60 100 -75 152 -53 60 26 66 30
78 55 17 32 -2 56 -25 32 -19 -18 -74 -43 -97 -43 -19 0 -62 41 -102 97 -35
48 -36 74 -5 144 41 95 115 152 205 161 61 6 81 23 43 38 -15 5 -38 10 -51 10
-13 0 -28 8 -34 18 -9 16 -10 16 -16 0z"/>
<path d="M5809 2733 c-12 -36 -14 -110 -3 -144 3 -13 -8 -18 -53 -27 -117 -23
-121 -22 -121 12 0 49 -13 139 -22 156 -7 11 -13 4 -28 -30 -20 -46 -21 -75
-7 -222 4 -40 8 -107 9 -149 3 -76 9 -99 26 -99 18 0 29 68 25 158 -4 90 -4
92 18 92 22 0 106 21 140 35 15 6 17 1 17 -37 0 -25 3 -48 6 -51 4 -4 6 -47 6
-96 -1 -65 2 -92 13 -101 29 -24 37 25 36 205 0 95 -3 189 -7 211 -16 101 -20
118 -31 121 -6 2 -17 -13 -24 -34z"/>
<path d="M6089 2755 c-45 -11 -58 -27 -41 -48 7 -8 7 -18 2 -27 -8 -13 -5
-101 7 -195 3 -22 7 -78 8 -125 2 -47 4 -90 4 -96 1 -7 17 -19 37 -29 31 -15
42 -15 82 -5 26 7 78 16 116 19 75 6 91 20 51 41 -29 16 -61 17 -166 7 l-75
-7 3 73 c2 39 7 75 11 79 4 4 23 10 42 13 51 8 100 25 100 35 0 22 -36 34 -91
32 -33 -2 -59 0 -60 5 0 4 -2 17 -4 28 -3 11 -6 47 -7 80 l-3 60 60 8 c33 4
84 10 113 13 55 6 79 27 51 45 -18 12 -185 7 -240 -6z"/>
<path d="M1091 2751 c-10 -7 -12 -38 -7 -142 3 -74 8 -148 11 -165 3 -17 7
-51 8 -75 3 -54 48 -137 80 -144 81 -17 96 -16 114 13 10 15 27 34 37 43 23
19 35 96 24 154 -4 22 -7 86 -7 142 1 136 -20 198 -61 173 -22 -13 -18 -130
11 -305 11 -69 10 -72 -17 -117 -16 -26 -39 -53 -52 -60 -21 -11 -26 -10 -38
7 -22 30 -35 90 -34 158 0 66 -5 144 -16 217 -4 25 -8 55 -8 68 -1 27 -26 45
-45 33z"/>
<path d="M1597 2745 c-76 -12 -97 -23 -97 -54 0 -11 14 -12 68 -7 l67 7 -1
-54 c-1 -30 2 -74 6 -98 13 -67 15 -148 6 -211 -11 -76 -3 -108 28 -108 32 0
35 23 30 255 -4 204 -1 227 22 218 20 -8 101 47 84 57 -18 11 -120 8 -213 -5z"/>
<path d="M682 2713 c-18 -16 -32 -33 -32 -40 0 -6 -11 -20 -25 -31 -54 -43
-61 -137 -19 -277 14 -49 28 -97 31 -106 12 -42 115 -85 177 -74 18 4 45 17
61 31 l28 24 0 155 c0 145 -2 158 -22 179 -13 14 -21 35 -21 59 0 43 -35 89
-71 93 -13 1 -35 5 -49 8 -18 5 -34 -1 -58 -21z m126 -73 c9 0 13 -3 9 -6 -3
-4 1 -23 9 -43 29 -69 35 -240 10 -306 -16 -40 -20 -43 -53 -43 -20 0 -41 5
-47 12 -16 16 -88 239 -89 272 0 60 4 73 32 100 16 15 44 33 63 39 28 9 34 8
42 -7 5 -10 16 -18 24 -18z m-122 -384 c-4 -13 -26 39 -26 62 1 9 7 2 16 -17
8 -19 13 -39 10 -45z"/>
<path d="M3662 1926 c-51 -80 -56 -85 -100 -95 -26 -6 -67 -13 -90 -15 -24 -2
-46 -7 -50 -10 -9 -10 31 -47 68 -62 93 -39 88 -33 79 -78 -5 -23 -12 -57 -17
-76 -10 -47 -4 -90 13 -90 8 0 17 5 21 11 3 6 16 8 29 5 18 -5 24 -1 29 17 6
25 62 87 78 87 6 0 37 -25 70 -55 47 -43 63 -53 73 -45 10 8 19 8 34 0 16 -8
21 -8 22 2 3 33 -5 67 -27 120 -13 32 -24 60 -24 62 0 3 32 24 70 47 100 59
117 94 48 95 -24 0 -73 4 -109 9 l-66 8 -34 66 c-31 61 -46 80 -59 81 -3 0
-29 -38 -58 -84z"/>
<path d="M808 1855 c-11 -9 -153 -19 -313 -20 -241 -3 -335 -11 -355 -32 -14
-14 -7 -15 70 -9 47 4 102 9 123 11 62 7 580 7 727 1 74 -3 243 -8 375 -11
132 -3 296 -9 365 -12 69 -4 154 -6 190 -4 109 5 200 5 305 -2 192 -12 299 -9
370 8 65 17 148 16 225 0 14 -3 61 -5 105 -4 44 0 112 1 150 0 69 -1 107 10
91 26 -4 4 -53 7 -109 6 -169 -4 -281 -4 -297 0 -60 15 -113 18 -142 7 -19 -8
-93 -14 -176 -16 -79 -1 -149 -5 -156 -7 -7 -3 -44 1 -82 8 -67 12 -102 12
-209 0 -89 -10 -221 -7 -395 11 -25 2 -186 6 -358 9 -172 2 -316 6 -320 9 -4
2 -35 7 -67 11 -33 3 -72 7 -87 9 -15 2 -29 2 -30 1z"/>
<path d="M6797 1853 c-1 0 -26 -4 -56 -8 -30 -4 -63 -9 -75 -11 -12 -2 -61 -4
-111 -3 -49 1 -211 3 -360 5 -148 1 -288 4 -310 5 -44 3 -134 -5 -265 -23 -89
-12 -439 -14 -745 -5 -99 4 -203 2 -230 -2 -119 -21 -311 -32 -359 -21 -17 4
-43 3 -56 -3 -25 -10 -25 -10 10 -18 35 -8 273 -5 287 4 34 21 259 25 758 14
150 -3 272 -2 305 4 102 19 286 22 795 15 170 -3 272 -1 295 6 19 6 85 12 145
14 136 2 131 2 119 14 -8 8 -140 20 -147 13z"/>
<path d="M6696 1673 c-1 -1 -44 -3 -96 -4 -52 -1 -129 -6 -170 -11 -167 -21
-654 -43 -675 -30 -5 3 -36 7 -70 8 -33 2 -96 6 -140 10 -193 16 -411 12 -511
-10 -12 -2 -118 -6 -237 -8 -118 -1 -213 -7 -210 -11 3 -5 -24 -7 -59 -6 -36
1 -70 -1 -76 -5 -11 -6 -216 -10 -242 -4 -7 2 -14 -2 -17 -8 -4 -12 163 -28
204 -20 12 3 75 7 140 10 65 3 152 8 193 11 41 3 121 7 177 10 56 3 112 8 125
11 38 8 179 18 248 18 61 0 143 -6 340 -22 179 -15 743 -6 810 13 42 12 92 15
280 16 205 2 257 7 230 24 -12 7 -237 14 -244 8z"/>
<path d="M2757 1644 c-2 -2 -276 -17 -297 -17 -131 5 -558 -3 -630 -12 -36 -4
-180 -7 -320 -7 -418 1 -434 1 -470 -5 -57 -9 -602 -9 -635 0 -50 14 -262 19
-270 7 -12 -20 3 -23 102 -26 54 -2 125 -6 158 -9 165 -16 334 -20 515 -11 63
3 279 7 480 10 201 3 410 7 465 10 55 3 226 8 380 11 154 3 316 8 360 11 44 3
96 5 115 3 125 -8 505 5 520 18 23 20 -173 28 -257 9 -12 -2 -65 -1 -118 3
-53 3 -97 6 -98 5z"/>
</g>
</svg>
